# xmcd
#
# Track frame offsets:
#	150
#	25328
#	47800
#	67940
#	84148
#	106213
#	127078
#	150883
#	168568
#	185430
#
# Disc length: 2730 seconds
#
# Revision: 16720783
# Processed by: cddbd v1.5.2PL0 Copyright (c) Steve Scherf et al.
# Submitted via: EZCDAudioConverter 8.0.2.1
#
DISCID=740aa80a
DTITLE=Kiều Nga - Vết Lăn Trầm
DYEAR=1991
DGENRE=Miscellaneous
TTITLE0=Vết Lăn Trầm
TTITLE1=Dốc mơ
TTITLE2=Tà áo cưới
TTITLE3=Vì tôi là linh mục
TTITLE4=Kinh chiều
TTITLE5=Thung lũng hồng
TTITLE6=Phượng yêu
TTITLE7=Mưa đêm
TTITLE8=Kiếp cầm ca
TTITLE9=Đường nào em đi
EXTD=
EXTT0=
EXTT1=
EXTT2=
EXTT3=
EXTT4=
EXTT5=
EXTT6=
EXTT7=
EXTT8=
EXTT9=
PLAYORDER=
